<svg width="256" height="256" viewBox="0 0 256 256" fill="none" xmlns="http://www.w3.org/2000/svg">
  <rect width="256" height="256" rx="48" fill="#07111D"/>
  <rect x="18" y="18" width="220" height="220" rx="38" fill="#0B1628" stroke="#46F3FF" stroke-opacity="0.24" stroke-width="2"/>
  <path d="M66 144C66 95.3989 105.399 56 154 56H182V84H154C120.863 84 94 110.863 94 144C94 177.137 120.863 204 154 204H182V232H154C105.399 232 66 192.601 66 144Z" fill="#46F3FF"/>
  <path d="M182 56H154C105.399 56 66 95.3989 66 144C66 192.601 105.399 232 154 232H182V204H154C120.863 204 94 177.137 94 144C94 110.863 120.863 84 154 84H182V56Z" fill="url(#g)" fill-opacity="0.3"/>
  <circle cx="102" cy="128" r="18" fill="#FF4FD8"/>
  <defs>
    <linearGradient id="g" x1="66" y1="56" x2="195" y2="219" gradientUnits="userSpaceOnUse">
      <stop stop-color="#46F3FF"/>
      <stop offset="1" stop-color="#FF4FD8"/>
    </linearGradient>
  </defs>
</svg>
