<svg width="1280" height="640" viewBox="0 0 1280 640" fill="none" xmlns="http://www.w3.org/2000/svg">
  <defs>
    <linearGradient id="bg" x1="80" y1="40" x2="1200" y2="600" gradientUnits="userSpaceOnUse">
      <stop stop-color="#08111E"/>
      <stop offset="1" stop-color="#04070F"/>
    </linearGradient>
    <linearGradient id="trace" x1="190" y1="332" x2="1108" y2="332" gradientUnits="userSpaceOnUse">
      <stop stop-color="#46F3FF"/>
      <stop offset="1" stop-color="#FF4FD8"/>
    </linearGradient>
    <filter id="glow" x="0" y="0" width="1280" height="640" filterUnits="userSpaceOnUse" color-interpolation-filters="sRGB">
      <feGaussianBlur stdDeviation="18"/>
    </filter>
    <pattern id="grid" x="0" y="0" width="32" height="32" patternUnits="userSpaceOnUse">
      <path d="M32 0H0V32" stroke="#46F3FF" stroke-opacity="0.06"/>
    </pattern>
  </defs>

  <rect width="1280" height="640" rx="28" fill="url(#bg)"/>
  <rect width="1280" height="640" rx="28" fill="url(#grid)"/>

  <ellipse cx="246" cy="146" rx="210" ry="110" fill="#46F3FF" fill-opacity="0.10" filter="url(#glow)"/>
  <ellipse cx="1024" cy="496" rx="180" ry="96" fill="#FF4FD8" fill-opacity="0.08" filter="url(#glow)"/>

  <path d="M190 332H402L458 270L516 388L582 242L646 332H888L952 290L1012 332H1108" stroke="url(#trace)" stroke-width="8" stroke-linecap="round" stroke-linejoin="round"/>
  <circle cx="458" cy="270" r="8" fill="#46F3FF"/>
  <circle cx="646" cy="332" r="8" fill="#A6FF47"/>
  <circle cx="1012" cy="332" r="8" fill="#FF4FD8"/>

  <text x="178" y="380" font-family="'Segoe UI Emoji', 'Apple Color Emoji', 'Noto Color Emoji', sans-serif" font-size="210">👻</text>
  <path d="M386 250C424 266 452 290 470 324" stroke="#46F3FF" stroke-width="7" stroke-linecap="round"/>
  <circle cx="478" cy="336" r="10" fill="#46F3FF"/>

  <text x="534" y="250" fill="#EAFBFF" font-family="'Segoe UI', Arial, sans-serif" font-size="88" font-weight="700" letter-spacing="-2">Ghost Trace</text>
  <text x="538" y="306" fill="#8CB2C2" font-family="Consolas, 'Courier New', monospace" font-size="24" letter-spacing="2">AI REVERSE ENGINEERING WORKBENCH</text>
  <rect x="538" y="354" width="248" height="52" rx="26" fill="#0B1627" stroke="#46F3FF" stroke-opacity="0.26"/>
  <text x="572" y="387" fill="#A7FAFF" font-family="Consolas, 'Courier New', monospace" font-size="21" letter-spacing="2">GHOSTTRACE LAB</text>
</svg>
