<svg width="1280" height="640" viewBox="0 0 1280 640" fill="none" xmlns="http://www.w3.org/2000/svg">
  <defs>
    <linearGradient id="bg" x1="80" y1="40" x2="1200" y2="600" gradientUnits="userSpaceOnUse">
      <stop stop-color="#08111E"/>
      <stop offset="1" stop-color="#04070F"/>
    </linearGradient>
    <linearGradient id="trace" x1="190" y1="332" x2="1108" y2="332" gradientUnits="userSpaceOnUse">
      <stop stop-color="#46F3FF"/>
      <stop offset="1" stop-color="#FF4FD8"/>
    </linearGradient>
    <filter id="glow" x="0" y="0" width="1280" height="640" filterUnits="userSpaceOnUse" color-interpolation-filters="sRGB">
      <feGaussianBlur stdDeviation="18"/>
    </filter>
    <pattern id="grid" x="0" y="0" width="32" height="32" patternUnits="userSpaceOnUse">
      <path d="M32 0H0V32" stroke="#46F3FF" stroke-opacity="0.06"/>
    </pattern>
  </defs>

  <rect width="1280" height="640" rx="28" fill="url(#bg)"/>
  <rect width="1280" height="640" rx="28" fill="url(#grid)"/>

  <ellipse cx="246" cy="146" rx="210" ry="110" fill="#46F3FF" fill-opacity="0.10" filter="url(#glow)"/>
  <ellipse cx="1024" cy="496" rx="180" ry="96" fill="#FF4FD8" fill-opacity="0.08" filter="url(#glow)"/>

  <path d="M190 332H402L458 270L516 388L582 242L646 332H888L952 290L1012 332H1108" stroke="url(#trace)" stroke-width="8" stroke-linecap="round" stroke-linejoin="round"/>
  <circle cx="458" cy="270" r="8" fill="#46F3FF"/>
  <circle cx="646" cy="332" r="8" fill="#A6FF47"/>
  <circle cx="1012" cy="332" r="8" fill="#FF4FD8"/>

  <g transform="translate(170 176)">
    <path d="M96 26C58.445 26 28 56.445 28 94V184C28 192.837 35.163 200 44 200C52.837 200 60 192.837 60 184V176L84 200L108 176L132 200L156 176L180 200L204 176V184C204 192.837 211.163 200 220 200C228.837 200 236 192.837 236 184V94C236 56.445 205.555 26 168 26H96Z" fill="#DDFBFF" fill-opacity="0.97"/>
    <path d="M96 26C58.445 26 28 56.445 28 94V184C28 192.837 35.163 200 44 200C52.837 200 60 192.837 60 184V176L84 200L108 176L132 200L156 176L180 200L204 176V184C204 192.837 211.163 200 220 200C228.837 200 236 192.837 236 184V94C236 56.445 205.555 26 168 26H96Z" stroke="#46F3FF" stroke-opacity="0.45" stroke-width="4"/>
    <circle cx="101" cy="100" r="11" fill="#09121F"/>
    <circle cx="162" cy="100" r="11" fill="#09121F"/>
    <path d="M90 144C104 156 122 162 140 162C158 162 176 156 190 144" stroke="#09121F" stroke-width="8" stroke-linecap="round"/>
    <path d="M218 74C252 88 276 110 292 136" stroke="#46F3FF" stroke-width="7" stroke-linecap="round"/>
    <circle cx="300" cy="148" r="10" fill="#46F3FF"/>
  </g>

  <text x="534" y="250" fill="#EAFBFF" font-family="'Segoe UI', Arial, sans-serif" font-size="88" font-weight="700" letter-spacing="-2">Ghost Trace</text>
  <text x="538" y="306" fill="#8CB2C2" font-family="Consolas, 'Courier New', monospace" font-size="24" letter-spacing="2">AI REVERSE ENGINEERING WORKBENCH</text>
  <text x="538" y="382" fill="#CFEFF8" font-family="'Segoe UI', Arial, sans-serif" font-size="29">Static triage, guided decompilation, sandbox workflows.</text>
  <text x="538" y="426" fill="#CFEFF8" font-family="'Segoe UI', Arial, sans-serif" font-size="29">One operator surface for binaries, reports, and debugger traces.</text>

  <rect x="538" y="478" width="248" height="52" rx="26" fill="#0B1627" stroke="#46F3FF" stroke-opacity="0.26"/>
  <text x="572" y="511" fill="#A7FAFF" font-family="Consolas, 'Courier New', monospace" font-size="21" letter-spacing="2">GHOSTTRACE LAB</text>
</svg>
